<svg xmlns="http://www.w3.org/2000/svg" viewBox="0 0 1200 620" role="img" aria-labelledby="title desc">
  <title id="title">Biu portal layout overview</title>
  <desc id="desc">Schematic preview of sidebar and topbar portal demos</desc>
  <rect width="1200" height="620" fill="#f4f6f8"/>
  <text x="44" y="54" fill="#111" font-family="Inter,Arial,sans-serif" font-size="28" font-weight="700">Biu Portal Layouts</text>
  <g transform="translate(44 88)">
    <rect width="520" height="470" rx="12" fill="#fff" stroke="#d9dee5"/>
    <rect width="118" height="470" rx="12" fill="#17191d"/>
    <rect x="118" width="402" height="56" fill="#fff" stroke="#e7e9ed"/>
    <rect x="142" y="82" width="330" height="22" rx="6" fill="#e9edf2"/>
    <rect x="142" y="130" width="270" height="16" rx="5" fill="#d7dde5"/>
    <rect x="142" y="166" width="300" height="16" rx="5" fill="#d7dde5"/>
    <rect x="142" y="224" width="330" height="190" rx="8" fill="#f5f7fa"/>
    <text x="24" y="44" fill="#fff" font-family="Inter,Arial,sans-serif" font-size="18" font-weight="700">Sidebar</text>
    <text x="142" y="452" fill="#68707b" font-family="Inter,Arial,sans-serif" font-size="16">menus · tabs · slots · responsive</text>
  </g>
  <g transform="translate(636 88)">
    <rect width="520" height="470" rx="12" fill="#fff" stroke="#d9dee5"/>
    <rect width="520" height="62" rx="12" fill="#17191d"/>
    <rect x="24" y="20" width="80" height="20" rx="5" fill="#fff"/>
    <rect x="132" y="20" width="150" height="20" rx="5" fill="#5d6672"/>
    <rect x="300" y="20" width="74" height="20" rx="5" fill="#5d6672"/>
    <rect x="396" y="20" width="96" height="20" rx="5" fill="#5d6672"/>
    <rect x="24" y="104" width="320" height="22" rx="6" fill="#e9edf2"/>
    <rect x="24" y="152" width="250" height="16" rx="5" fill="#d7dde5"/>
    <rect x="24" y="188" width="290" height="16" rx="5" fill="#d7dde5"/>
    <rect x="24" y="246" width="472" height="168" rx="8" fill="#f5f7fa"/>
    <text x="24" y="452" fill="#68707b" font-family="Inter,Arial,sans-serif" font-size="16">top navigation · toolbar · portal slots</text>
  </g>
</svg>
